<svg width="52" height="43" viewBox="0 0 52 43" fill="none" xmlns="http://www.w3.org/2000/svg">
<path d="M17.8266 11.1168L0.440754 21.1555C0.167934 21.3124 1.52588e-05 21.6042 1.52588e-05 21.9184C1.52588e-05 22.2327 0.167934 22.5245 0.440754 22.6818L17.8266 32.7218C18.0994 32.8792 18.4352 32.8792 18.7081 32.7218C18.9809 32.5645 19.1488 32.2732 19.1488 31.9585V27.2844H34.1569C34.6434 27.2844 35.0383 26.8895 35.0383 26.403V17.4366C35.0383 16.95 34.6434 16.5551 34.1569 16.5551H19.1484V11.8815C19.1484 11.5659 18.9804 11.2755 18.7076 11.1181C18.571 11.0388 18.4189 11 18.2669 11C18.1148 11 17.9628 11.0388 17.8266 11.1168Z" fill="black"/>
<path d="M45.231 0.751404H27.2714C26.7848 0.751404 26.3899 1.14631 26.3899 1.63288V4.27732C26.3899 4.76389 26.7848 5.15879 27.2714 5.15879H45.231C46.3911 5.15879 47.3338 6.10242 47.3338 7.26156V36.4054C47.3338 37.565 46.3902 38.5082 45.231 38.5082H27.2714C26.7848 38.5082 26.3899 38.9031 26.3899 39.3897V42.0341C26.3899 42.5207 26.7848 42.9156 27.2714 42.9156H45.231C48.8213 42.9156 51.7412 39.9948 51.7412 36.4054V7.262C51.7412 3.67218 48.8209 0.751404 45.231 0.751404Z" fill="black"/>
</svg>
