<svg width="21" height="20" viewBox="0 0 21 20" fill="none" xmlns="http://www.w3.org/2000/svg">
<path d="M10.9534 8.57356C10.7259 8.80106 10.7259 9.16589 10.9534 9.39336C11.8934 10.3333 11.8934 11.8613 10.9534 12.8013L6.0175 17.7372C5.07753 18.6771 3.54955 18.6771 2.60959 17.7372L1.86706 16.9946C0.92709 16.0547 0.92709 14.5267 1.86706 13.5867L6.80295 8.65083C7.03043 8.42336 7.03043 8.05852 6.80295 7.83104C6.57547 7.60356 6.21065 7.60356 5.98316 7.83104L1.04727 12.7669C0.373411 13.4408 0 14.3378 0 15.2907C0 16.2435 0.369119 17.1406 1.04727 17.8144L1.7898 18.557C2.48512 19.2523 3.39933 19.5999 4.31354 19.5999C5.22776 19.5999 6.14197 19.2523 6.83729 18.557L11.7732 13.6211C13.1638 12.2304 13.1638 9.96422 11.7732 8.57356C11.55 8.34608 11.1809 8.34608 10.9534 8.57356Z" fill="black"/>
<path d="M19.679 2.08824L18.9365 1.34571C17.5459 -0.0449238 15.2797 -0.0449238 13.889 1.34571L8.95312 6.2816C7.5625 7.67224 7.5625 9.93846 8.95312 11.3291C9.1806 11.5566 9.54543 11.5566 9.77292 11.3291C10.0004 11.1016 10.0004 10.7368 9.77292 10.5093C8.83295 9.56934 8.83295 8.04136 9.77292 7.10139L14.7088 2.1655C15.6488 1.22553 17.1768 1.22553 18.1167 2.1655L18.8592 2.90803C19.7992 3.84799 19.7992 5.37598 18.8592 6.31594L13.9234 11.2518C13.6959 11.4793 13.6959 11.8441 13.9234 12.0716C14.0349 12.1832 14.1852 12.2433 14.3311 12.2433C14.477 12.2433 14.6273 12.1875 14.7389 12.0716L19.6747 7.13573C20.3486 6.46187 20.722 5.56483 20.722 4.61199C20.722 3.65914 20.3529 2.7621 19.679 2.08824Z" fill="black"/>
</svg>
