<svg width="41" height="33" viewBox="0 0 41 33" fill="none" xmlns="http://www.w3.org/2000/svg">
<path d="M40.5818 3.90016C39.0881 4.562 37.4855 5.01086 35.8016 5.21124C37.521 4.18165 38.8371 2.54856 39.4609 0.608597C37.8481 1.56207 36.0678 2.25441 34.171 2.62973C32.652 1.00931 30.4914 0 28.095 0C23.4974 0 19.7697 3.72775 19.7697 8.32279C19.7697 8.97449 19.8432 9.611 19.9852 10.2197C13.0674 9.87219 6.93306 6.55781 2.82747 1.52148C2.10979 2.74889 1.70152 4.17906 1.70152 5.70573C1.70152 8.59413 3.17235 11.1427 5.40395 12.6338C4.03962 12.5881 2.75645 12.2128 1.63309 11.589V11.6929C1.63309 15.725 4.50372 19.0901 8.31006 19.856C7.61268 20.0436 6.8773 20.1476 6.11652 20.1476C5.57894 20.1476 5.05907 20.0944 4.54935 19.9929C5.60931 23.3023 8.68286 25.7088 12.3244 25.7748C9.47659 28.0064 5.88576 29.3326 1.98559 29.3326C1.31361 29.3326 0.651697 29.2921 0 29.2185C3.68466 31.5845 8.05908 32.9641 12.7606 32.9641C28.0748 32.9641 36.4458 20.2795 36.4458 9.27885L36.4179 8.20111C38.0535 7.03452 39.4685 5.56879 40.5818 3.90016Z" fill="#010002"/>
</svg>
