<svg width="29" height="45" viewBox="0 0 29 45" fill="none" xmlns="http://www.w3.org/2000/svg">
<path d="M20.9742 37.2638V38.9647C20.9742 40.3182 19.98 41.4441 18.6864 41.6358L18.2672 43.1809C18.0396 44.0194 17.285 44.6063 16.4106 44.6063H12.2543C11.3799 44.6063 10.6253 44.0194 10.3977 43.1809L9.99043 41.6358C8.68483 41.4321 7.69066 40.3182 7.69066 38.9527V37.2518C7.69066 36.3415 8.42132 35.6108 9.33164 35.6108H19.3332C20.2436 35.6228 20.9742 36.3535 20.9742 37.2638ZM28.676 14.338C28.676 18.2069 27.1428 21.7164 24.6514 24.2917C22.7589 26.2561 21.5372 28.7595 21.1299 31.4305C20.9502 32.5804 19.9561 33.4309 18.7822 33.4309H9.88263C8.72077 33.4309 7.71462 32.5924 7.54692 31.4425C7.1277 28.7714 5.89397 26.2321 4.00145 24.2797C1.55795 21.7404 0.0367517 18.2907 0.000821083 14.4937C-0.083026 6.51642 6.26528 0.0603049 14.2426 0.000414158C22.2079 -0.0594804 28.676 6.38465 28.676 14.338ZM15.9554 5.654C15.9554 4.76764 15.2368 4.03698 14.3384 4.03698C8.63692 4.03698 3.98948 8.67245 3.98948 14.3859C3.98948 15.2723 4.70816 16.003 5.60651 16.003C6.49287 16.003 7.22353 15.2843 7.22353 14.3859C7.22353 10.4572 10.4216 7.27103 14.3384 7.27103C15.2368 7.27103 15.9554 6.55235 15.9554 5.654Z" fill="black"/>
</svg>
